#!OML:ASF H:\Punching\Project 1\Capture day 1\Session 1\female.ASF
:FULLY-SPECIFIED
:DEGREES
724
root -0.228839 14.4752 1.24534 16.9336 21.3207 0.805422
lowerback -0.0936675 8.50244 3.38529
upperback -6.27451 11.3973 -4.1916
thorax -4.98375 5.46875 -6.57545
lowerneck -8.79519 -6.96678 2.86408
upperneck 35.5985 -13.0321 7.91164
head 14.1003 -3.98931 0.896813
rclavicle -2.18353e-014 -2.27608e-014
rhumerus 49.7948 -4.83089 -70.5537
rradius 38.7259
rwrist -14.44
rhand -21.7871 -26.3053
rfingers 7.12502
rthumb 4.61431 -56.235
lclavicle -2.18353e-014 -2.27608e-014
lhumerus 20.9145 -43.3123 79.2967
lradius 131.427
lwrist 13.6782
lhand -21.1512 10.9286
lfingers 7.12502
lthumb 5.22835 40.8441
rfemur 20.9682 -34.2485 8.79302
rtibia -6.36111e-015
rfoot -20.5081 -15.4473
rtoes -3.12512
lfemur -58.236 -9.19199 -11.1707
ltibia 41.8489
lfoot -1.71224 -9.60692
ltoes -3.69351
725
root -0.233071 14.4804 1.2397 16.8623 20.9701 0.630371
lowerback -0.0063383 8.64213 3.65044
upperback -6.2662 11.5956 -4.20372
thorax -4.94639 5.55755 -6.73815
lowerneck -8.85613 -6.89604 3.02808
upperneck 35.7999 -12.9732 7.87223
head 14.1914 -3.92824 0.863476
rclavicle -4.0754e-014 1.89839e-014
rhumerus 51.5769 -6.16609 -72.6387
rradius 33.8224
rwrist -11.8976
rhand -22.1714 -25.5135
rfingers 7.12502
rthumb 4.24326 -55.451
lclavicle -4.0754e-014 1.89839e-014
lhumerus 21.0407 -43.2954 79.1597
lradius 131.383
lwrist 13.4538
lhand -21.1433 10.9136
lfingers 7.12502
lthumb 5.23596 40.8289
rfemur 20.7654 -33.8938 8.99195
rtibia -4.13472e-014
rfoot -20.4576 -15.4894
rtoes -3.62215
lfemur -58.1759 -9.02972 -10.9304
ltibia 41.8933
lfoot -1.78849 -9.3361
ltoes -3.9126
726
root -0.237587 14.4884 1.23439 16.8068 20.4991 0.486003
lowerback 0.0820813 8.73424 3.81112
upperback -6.24992 11.7262 -4.21727
thorax -4.92824 5.61622 -6.84777
lowerneck -8.94475 -6.77163 3.24285
upperneck 35.985 -12.8474 7.82
head 14.2741 -3.83524 0.824498
rclavicle -4.56584e-014 -1.64494e-014
rhumerus 52.857 -7.3203 -74.8234
rradius 30.4899
rwrist -9.52434
rhand -22.6589 -24.4928
rfingers 7.12502
rthumb 3.77245 -54.4392
lclavicle -4.56584e-014 -1.64494e-014
lhumerus 21.1769 -43.2636 79.0172
lradius 131.388
lwrist 13.2706
lhand -21.1481 10.8429
lfingers 7.12502
lthumb 5.23133 40.7584
rfemur 20.504 -33.4408 9.17113
rtibia 3.18055e-014
rfoot -20.3788 -15.5797
rtoes -4.16195
lfemur -58.0589 -8.85886 -10.6837
ltibia 41.8904
lfoot -1.87828 -8.96823
ltoes -4.19002
727
root -0.242391 14.4992 1.22966 16.7682 19.9168 0.378377
lowerback 0.170183 8.78457 3.86508
upperback -6.23085 11.7964 -4.2397
thorax -4.93306 5.64811 -6.91155
lowerneck -9.03277 -6.60514 3.51025
upperneck 36.1382 -12.6694 7.7615
head 14.3365 -3.71766 0.781012
rclavicle -3.83717e-014 3.29486e-014
rhumerus 53.4276 -7.97483 -76.4552
rradius 28.9363
rwrist -7.93734
rhand -23.2264 -23.6367
rfingers 7.12502
rthumb 3.22444 -53.592
lclavicle -3.83717e-014 3.29486e-014
lhumerus 21.3056 -43.2505 78.8951
lradius 131.433
lwrist 13.1074
lhand -21.1493 10.7257
lfingers 7.12502
lthumb 5.23016 40.6412
rfemur 20.192 -32.8988 9.32234
rtibia 1.90833e-014
rfoot -20.267 -15.7182
rtoes -4.71743
lfemur -57.8817 -8.68963 -10.4359
ltibia 41.8339
lfoot -1.97516 -8.50633
ltoes -4.50086
728
root -0.247108 14.5128 1.22542 16.7482 19.2292 0.303957
lowerback 0.241741 8.78664 3.80517
upperback -6.20388 11.7966 -4.25871
thorax -4.95204 5.64941 -6.90977
lowerneck -9.12171 -6.39243 3.81855
upperneck 36.2661 -12.4289 7.6878
head 14.3817 -3.57341 0.732786
rclavicle -3.20975e-014 -7.25564e-015
rhumerus 53.1899 -7.86001 -77.0526
rradius 29.1697
rwrist -7.62299
rhand -23.6802 -23.2024
rfingers 7.12502
rthumb 2.78622 -53.164
lclavicle -3.20975e-014 -7.25564e-015
lhumerus 21.411 -43.2276 78.8071
lradius 131.516
lwrist 12.9673
lhand -21.1022 10.6287
lfingers 7.12502
lthumb 5.2757 40.543
rfemur 19.8277 -32.272 9.44817
rtibia 3.81667e-014
rfoot -20.1115 -15.9074
rtoes -5.28974
lfemur -57.6493 -8.52639 -10.1847
ltibia 41.7231
lfoot -2.07076 -7.95085
ltoes -4.80715
729
root -0.251435 14.5293 1.22176 16.7431 18.4379 0.256647
lowerback 0.31013 8.78023 3.68015
upperback -6.19951 11.7812 -4.32989
thorax -4.99707 5.64347 -6.93016
lowerneck -9.14197 -6.17331 4.2412
upperneck 36.3416 -12.1943 7.61706
head 14.3821 -3.42307 0.667388
rclavicle 4.83668e-014 4.17448e-015
rhumerus 52.1584 -7.11819 -76.699
rradius 31.0038
rwrist -8.57633
rhand -23.8256 -23.2216
rfingers 7.12502
rthumb 2.64581 -53.1849
lclavicle 4.83668e-014 4.17448e-015
lhumerus 21.4787 -43.314 78.7305
lradius 131.635
lwrist 12.8428
lhand -21.0309 10.5832
lfingers 7.12502
lthumb 5.34453 40.4958
rfemur 19.4138 -31.5592 9.54983
rtibia -6.36111e-015
rfoot -19.9082 -16.1454
rtoes -5.88482
lfemur -57.3626 -8.36532 -9.92983
ltibia 41.5643
lfoot -2.16403 -7.30739
ltoes -5.1044
730
root -0.254751 14.5481 1.21836 16.7492 17.547 0.229939
lowerback 0.344641 8.7257 3.45882
upperback -6.18117 11.6961 -4.38777
thorax -5.0386 5.6074 -6.87956
lowerneck -9.15704 -5.90459 4.70865
upperneck 36.4028 -11.8822 7.49904
head 14.3665 -3.24272 0.585753
rclavicle -2.72832e-014 -2.3556e-014
rhumerus 50.6241 -5.78056 -75.7778
rradius 34.162
rwrist -10.4809
rhand -23.6305 -23.5304
rfingers 7.12502
rthumb 2.83416 -53.4914
lclavicle -2.72832e-014 -2.3556e-014
lhumerus 21.4905 -43.3494 78.6891
lradius 131.782
lwrist 12.7068
lhand -20.9309 10.6089
lfingers 7.12502
lthumb 5.44103 40.519
rfemur 18.9557 -30.7611 9.62619
rtibia 2.22639e-014
rfoot -19.6551 -16.4271
rtoes -6.50428
lfemur -57.0261 -8.20234 -9.67321
ltibia 41.3685
lfoot -2.25457 -6.58218
ltoes -5.37616
731
root -0.25664 14.5692 1.21523 16.7565 16.5449 0.213186
lowerback 0.35086 8.62562 3.15774
upperback -6.14799 11.5458 -4.42873
thorax -5.07503 5.54283 -6.76321
lowerneck -9.15992 -5.58082 5.22676
upperneck 36.4543 -11.4783 7.31351
head 14.3341 -3.02808 0.480764
rclavicle -7.10655e-015 -6.36111e-015
rhumerus 48.8115 -4.05019 -74.7256
rradius 38.3618
rwrist -13.0054
rhand -23.2005 -23.9384
rfingers 7.12502
rthumb 3.24945 -53.8934
lclavicle -7.10655e-015 -6.36111e-015
lhumerus 21.4434 -43.3131 78.6703
lradius 131.935
lwrist 12.5521
lhand -20.8547 10.6529
lfingers 7.12502
lthumb 5.5146 40.5612
rfemur 18.4572 -29.8621 9.67811
rtibia -9.54166e-015
rfoot -19.3547 -16.746
rtoes -7.16294
lfemur -56.6354 -8.02465 -9.41167
ltibia 41.1507
lfoot -2.35162 -5.77229
ltoes -5.62617
